<svg width="30" height="30" viewBox="0 0 30 30" fill="none" xmlns="http://www.w3.org/2000/svg">
<g clip-path="url(#clip0_248_621)">
<path fill-rule="evenodd" clip-rule="evenodd" d="M22.9596 20.502C23.1666 19.968 23.3088 19.3572 23.3496 18.4632C23.3904 17.5674 23.4 17.2812 23.4 15C23.4 12.7188 23.3904 12.4326 23.3496 11.5368C23.3088 10.6422 23.1666 10.032 22.9596 9.4974C22.7448 8.9454 22.4574 8.4768 21.9906 8.01C21.5238 7.5426 21.0552 7.2558 20.5026 7.041C19.968 6.8334 19.3578 6.6912 18.4632 6.6504C17.5674 6.6096 17.2818 6.6 15 6.6C12.7188 6.6 12.4332 6.6096 11.5374 6.6504C10.6428 6.6912 10.032 6.8334 9.498 7.041C8.9454 7.2558 8.4768 7.5426 8.01 8.01C7.5432 8.4768 7.2558 8.9454 7.041 9.4974C6.8334 10.032 6.6918 10.6422 6.6504 11.5368C6.6102 12.4326 6.6 12.7188 6.6 15C6.6 17.2812 6.6102 17.5674 6.6504 18.4632C6.6918 19.3572 6.8334 19.968 7.041 20.502C7.2558 21.0546 7.5432 21.5232 8.01 21.99C8.4768 22.4568 8.9454 22.7442 9.498 22.959C10.032 23.1666 10.6428 23.3088 11.5374 23.3496C12.4332 23.3904 12.7188 23.4 15 23.4C17.2818 23.4 17.5674 23.3904 18.4632 23.3496C19.3578 23.3088 19.968 23.1666 20.5026 22.959C21.0552 22.7442 21.5238 22.4568 21.9906 21.99C22.4574 21.5232 22.7448 21.0546 22.9596 20.502ZM0 15C0 6.7158 6.7158 0 15 0C23.2848 0 30 6.7158 30 15C30 23.2842 23.2848 30 15 30C6.7158 30 0 23.2842 0 15ZM19.4842 11.524C18.9274 11.524 18.4762 11.0728 18.4762 10.516C18.4762 9.95916 18.9274 9.50796 19.4842 9.50796C20.041 9.50796 20.4922 9.95916 20.4922 10.516C20.4922 11.0728 20.041 11.524 19.4842 11.524ZM15.0004 19.3132C12.6178 19.3132 10.6864 17.3824 10.6864 14.9998C10.6864 12.6178 12.6178 10.6864 15.0004 10.6864C17.3824 10.6864 19.3138 12.6178 19.3138 14.9998C19.3138 17.3824 17.3824 19.3132 15.0004 19.3132ZM21.5482 10.0462C21.3964 9.65376 21.214 9.37416 20.9206 9.08016C20.626 8.78616 20.3464 8.60376 19.9546 8.45136C19.6588 8.33676 19.2136 8.19936 18.3946 8.16216C17.509 8.12196 17.2432 8.11356 15.0004 8.11356C12.7576 8.11356 12.4918 8.12196 11.6062 8.16216C10.7872 8.19936 10.342 8.33676 10.0462 8.45136C9.65436 8.60376 9.37416 8.78616 9.08016 9.08016C8.78616 9.37416 8.60436 9.65376 8.45196 10.0462C8.33676 10.342 8.19996 10.7866 8.16276 11.6056C8.12196 12.4912 8.11356 12.757 8.11356 14.9998C8.11356 17.2432 8.12196 17.5084 8.16276 18.3946C8.19996 19.213 8.33676 19.6582 8.45196 19.954C8.60436 20.3464 8.78616 20.626 9.08016 20.92C9.37416 21.214 9.65436 21.3958 10.0462 21.5482C10.342 21.6634 10.7872 21.8002 11.6062 21.8374C12.4918 21.8776 12.7576 21.8866 15.0004 21.8866C17.2432 21.8866 17.509 21.8776 18.3946 21.8374C19.2136 21.8002 19.6588 21.6634 19.9546 21.5482C20.3464 21.3958 20.626 21.214 20.9206 20.92C21.214 20.626 21.3964 20.3464 21.5482 19.954C21.6634 19.6582 21.8002 19.213 21.838 18.3946C21.8782 17.5084 21.8866 17.2432 21.8866 14.9998C21.8866 12.757 21.8782 12.4912 21.838 11.6056C21.8002 10.7866 21.6634 10.342 21.5482 10.0462ZM15.0002 12.1998C13.454 12.1998 12.2 13.4532 12.2 15C12.2 16.5462 13.454 17.7996 15.0002 17.7996C16.5464 17.7996 17.8004 16.5462 17.8004 15C17.8004 13.4532 16.5464 12.1998 15.0002 12.1998Z" fill="white"/>
</g>
<defs>
<clipPath id="clip0_248_621">
<rect width="30" height="30" fill="white"/>
</clipPath>
</defs>
</svg>
