<svg width="30" height="30" viewBox="0 0 30 30" fill="none" xmlns="http://www.w3.org/2000/svg">
<g clip-path="url(#clip0_248_625)">
<path fill-rule="evenodd" clip-rule="evenodd" d="M22.3416 22.3464H19.2282V17.4738C19.2282 16.3122 19.2078 14.8176 17.61 14.8176C15.9894 14.8176 15.7422 16.0836 15.7422 17.391V22.3464H12.6318V12.327H15.6168V13.6968H15.6594C16.0746 12.909 17.091 12.0786 18.606 12.0786C21.759 12.0786 22.3416 14.1528 22.3416 16.8516V22.3464ZM9.1206 10.9584C8.1204 10.9584 7.314 10.149 7.314 9.1524C7.314 8.1558 8.1204 7.3464 9.1206 7.3464C10.1166 7.3464 10.9254 8.1558 10.9254 9.1524C10.9254 10.149 10.1166 10.9584 9.1206 10.9584ZM7.5618 22.3464H10.6788V12.327H7.5618V22.3464ZM15 0C6.7158 0 0 6.7158 0 15C0 23.2842 6.7158 30 15 30C23.2842 30 30 23.2842 30 15C30 6.7158 23.2842 0 15 0Z" fill="white"/>
</g>
<defs>
<clipPath id="clip0_248_625">
<rect width="30" height="30" fill="white"/>
</clipPath>
</defs>
</svg>
